<?xml version="1.0" encoding="UTF-8"?>
<svg id="Camada_2" data-name="Camada 2" xmlns="http://www.w3.org/2000/svg" viewBox="0 0 310.91 38.52">
  <defs>
    <style>
      .cls-1 {
        fill: #3f6989;
      }

      .cls-1, .cls-2, .cls-3 {
        stroke-width: 0px;
      }

      .cls-4 {
        letter-spacing: -.02em;
      }

      .cls-2 {
        fill: none;
      }

      .cls-5 {
        fill: #1d71b8;
        font-family: GoodTimesRg-Regular, 'Good Times';
        font-size: 36px;
      }

      .cls-3 {
        fill: #79ccf0;
      }
    </style>
  </defs>
  <g id="Camada_1-2" data-name="Camada 1">
    <text/>
    <text class="cls-5" transform="translate(32.91 31.28)"><tspan x="0" y="0">AF</tspan><tspan class="cls-4" x="60.98" y="0">r</tspan><tspan x="93.53" y="0">ontend</tspan></text>
    <g>
      <polygon class="cls-2" points="7.17 11.84 8.44 18.4 11.79 18.4 10.71 11.84 7.17 11.84"/>
      <path class="cls-2" d="m10.35,27.54c0,1.07.87,1.94,1.94,1.94s1.94-.87,1.94-1.94-.87-1.94-1.94-1.94c-1.07,0-1.94.87-1.94,1.94Z"/>
      <path class="cls-2" d="m23.9,27.54c0,1.07.87,1.94,1.94,1.94s1.94-.87,1.94-1.94-.87-1.94-1.94-1.94c-1.07,0-1.94.87-1.94,1.94Z"/>
      <polygon class="cls-2" points="13.69 18.4 17.99 18.4 17.99 11.84 12.61 11.84 13.69 18.4"/>
      <polygon class="cls-2" points="26.13 18.4 29.36 18.4 30.67 11.84 27.07 11.84 26.13 18.4"/>
      <polygon class="cls-2" points="19.87 18.4 24.23 18.4 25.18 11.84 19.87 11.84 19.87 18.4"/>
      <polygon class="cls-3" points="6.81 9.96 31.04 9.96 31.58 7.23 6.28 7.23 6.81 9.96"/>
      <path class="cls-1" d="m33.45,5.69c-.18-.22-.44-.34-.72-.34H5.91l-.89-4.59c-.09-.44-.47-.76-.92-.76H.94C.42,0,0,.42,0,.94s.42.94.94.94h2.39l4.04,21.14c.08.45.47.78.92.78h3.31c-1.78.32-3.13,1.88-3.13,3.75,0,2.1,1.71,3.81,3.81,3.81s3.81-1.71,3.81-3.81c0-1.87-1.35-3.43-3.13-3.75h12.18c-1.78.32-3.13,1.88-3.13,3.75,0,2.1,1.71,3.81,3.81,3.81s3.81-1.71,3.81-3.81c0-1.87-1.35-3.43-3.13-3.75h2.86c.52,0,.94-.42.94-.94s-.42-.94-.94-.94H9.08l-.29-1.63h21.34c.45,0,.83-.32.92-.76l2.59-13.05c.05-.28-.02-.56-.2-.78Zm-5.68,21.85c0,1.07-.87,1.94-1.94,1.94s-1.94-.87-1.94-1.94.87-1.94,1.94-1.94c1.07,0,1.94.87,1.94,1.94Zm-13.55,0c0,1.07-.87,1.94-1.94,1.94s-1.94-.87-1.94-1.94.87-1.94,1.94-1.94c1.07,0,1.94.87,1.94,1.94Zm-5.78-9.14l-1.27-6.56h3.54l1.08,6.56h-3.35Zm9.55,0h-4.3l-1.08-6.56h5.38v6.56Zm6.24,0h-4.37v-6.56h5.31l-.94,6.56Zm5.13,0h-3.23l.94-6.56h3.59l-1.3,6.56Zm1.67-8.44H6.81l-.53-2.74h25.3l-.54,2.74Z"/>
    </g>
  </g>
</svg>